<svg xmlns="http://www.w3.org/2000/svg" viewBox="0 0 46.84 53.62"><defs><style>.cls-1{fill:#a4d8eb;}.cls-2{fill:#4080c2;}.cls-3{fill:#fff;}.cls-4{fill:#3970a8;}</style></defs><title>Search</title><g id="Layer_2" data-name="Layer 2"><g id="texto"><rect class="cls-1" x="14" y="32.45" width="3.95" height="3.54" transform="translate(-20.81 25.67) rotate(-51.89)"/><circle class="cls-2" cx="28.19" cy="18.65" r="18.65" transform="translate(-3.25 31.06) rotate(-55.02)"/><path class="cls-1" d="M19,30.39a14.92,14.92,0,1,1,21-2.53A14.92,14.92,0,0,1,19,30.39Z"/><path class="cls-3" d="M29.82,19.94A2.08,2.08,0,1,1,29.47,17,2.07,2.07,0,0,1,29.82,19.94Z"/><path class="cls-3" d="M30.79,12.61A4.68,4.68,0,1,1,30,6.05,4.67,4.67,0,0,1,30.79,12.61Z"/><path class="cls-2" d="M16.46,39.24l-10.23,13A3.49,3.49,0,0,1,.74,48L11,34.94Z"/><path class="cls-4" d="M16.46,39.24,11,34.94l.27-.34a1.23,1.23,0,0,1,.83-.47,1.22,1.22,0,0,1,.91.26l3.53,2.77A1.21,1.21,0,0,1,17,38a1.29,1.29,0,0,1-.26.92Z"/></g></g></svg>